<svg id="layer-papers" width="512" height="512" viewBox="0 0 512 512" xmlns="http://www.w3.org/2000/svg">
                        <defs>
                            <filter id="p-shadow-md" x="-10%" y="-10%" width="120%" height="120%"><feDropShadow dx="0" dy="8" stdDeviation="12" flood-opacity="0.25"/></filter>
                            <filter id="p-shadow-sm" x="-10%" y="-10%" width="120%" height="120%"><feDropShadow dx="0" dy="4" stdDeviation="6" flood-opacity="0.15"/></filter>
                            <linearGradient id="p-paperGrad" x1="0%" y1="0%" x2="0%" y2="100%"><stop offset="0%" stop-color="#ffffff"/><stop offset="100%" stop-color="#f8fafc"/></linearGradient>
                        </defs>
                        <g transform="rotate(9, 256, 120)"><rect x="116" y="88" width="280" height="360" rx="8" fill="#cbd5e1" filter="url(#p-shadow-sm)"/></g>
                        <g transform="rotate(4.5, 256, 120)"><rect x="116" y="88" width="280" height="360" rx="8" fill="#e2e8f0" filter="url(#p-shadow-sm)"/></g>
                        <g transform="rotate(0, 256, 120)">
                            <rect x="116" y="88" width="280" height="360" rx="8" fill="url(#p-paperGrad)" filter="url(#p-shadow-md)"/>
                            <rect x="156" y="140" width="90" height="16" rx="8" fill="#94a3b8" opacity="0.4"/>
                            <rect x="156" y="184" width="200" height="12" rx="6" fill="#cbd5e1"/>
                            <rect x="156" y="208" width="140" height="12" rx="6" fill="#cbd5e1"/>
                            <rect x="156" y="252" width="180" height="12" rx="6" fill="#cbd5e1"/>
                            <rect x="156" y="276" width="160" height="12" rx="6" fill="#cbd5e1"/>
                            <rect x="156" y="320" width="120" height="12" rx="6" fill="#cbd5e1"/>
                        </g>
                    </svg>