<svg id="icon-mono" width="16" height="16" viewBox="0 0 16 16" xmlns="http://www.w3.org/2000/svg" class="pixel-perfect">
                        <!-- 
                          メニューバー用：黒一色で表示された際のシルエット。
                          中抜きを利用して「クリップボード」を表現
                        -->
                        <path d="M5,1 C4.447,1 4,1.447 4,2 L2.5,2 C1.671,2 1,2.671 1,3.5 L1,14.5 C1,15.329 1.671,16 2.5,16 L13.5,16 C14.329,16 15,15.329 15,14.5 L15,3.5 C15,2.671 14.329,2 13.5,2 L12,2 C12,1.447 11.553,1 11,1 L5,1 Z M3,5 L13,5 L13,13 L3,13 L3,5 Z" fill="#000000"/>
                        <!-- 時計/履歴を象徴するドット（右下） -->
                        <circle cx="12.5" cy="12.5" r="2" fill="#000000"/>
                    </svg>