<svg id="icon-mono" width="16" height="16" viewBox="0 0 16 16" xmlns="http://www.w3.org/2000/svg" class="pixel-perfect">
                        <!-- シルエットのみで構成 -->
                        <path d="M5,1 C4.4,1 4,1.4 4,2 L2.5,2 C1.7,2 1,2.7 1,3.5 L1,14.5 C1,15.3 1.7,16 2.5,16 L13.5,16 C14.3,16 15,15.3 15,14.5 L15,3.5 C15,2.7 14.3,2 13.5,2 L12,2 C12,1.4 11.6,1 11,1 L5,1 Z M3,5 L13,5 L13,12 C12.5,11.4 11.8,11 11,11 C9.3,11 8,12.3 8,14 L3,14 L3,5 Z" fill="#000000"/>
                        <!-- 右下の時計アイコン -->
                        <circle cx="12" cy="13" r="3" fill="none" stroke="#000000" stroke-width="1.5"/>
                        <path d="M12,11.5 L12,13 L13,14" fill="none" stroke="#000000" stroke-width="1" stroke-linecap="round"/>
                    </svg>