<?xml version="1.0" encoding="UTF-8"?>
<svg xmlns="http://www.w3.org/2000/svg" viewBox="0 0 22 18" width="22" height="18">
  <defs>
    <mask id="star-gap">
      <rect width="22" height="18" fill="white"/>
      <polygon points="16.00,5.70 18.76,9.20 22.94,10.74 20.47,14.45 20.29,18.91 16.00,17.70 11.71,18.91 11.53,14.45 9.06,10.74 13.24,9.20" fill="black"/>
    </mask>
  </defs>
  <g mask="url(#star-gap)">
    <path d="M2.3,2.5 L11.7,2.5 Q13.5,2.5 13.5,4.3 L13.5,15.7 Q13.5,17.5 11.7,17.5 L2.3,17.5 Q0.5,17.5 0.5,15.7 L0.5,4.3 Q0.5,2.5 2.3,2.5 Z" fill="none" stroke="black" stroke-width="1.5"/>
    <path d="M3.5,0.5 Q3.5,0 4.5,0 L9.5,0 Q10.5,0 10.5,0.5 L10.5,4 L3.5,4 Z" fill="black"/>
    <path fill="black" d="M2.5,6.5 L11.0,6.5 L11.0,7.7 L2.5,7.7 Z M2.5,10 L11.0,10 L11.0,11.2 L2.5,11.2 Z M2.5,13.5 L8.0,13.5 L8.0,14.7 L2.5,14.7 Z "/>
  </g>
  <path d="M16.00,7.20 L17.88,10.41 L21.52,11.21 L19.04,13.99 L19.41,17.69 L16.00,16.20 L12.59,17.69 L12.96,13.99 L10.48,11.21 L14.12,10.41 Z" fill="black"/>
</svg>