<svg xmlns="http://www.w3.org/2000/svg" viewBox="1.691 1.488 12.869 12.869" width="16" height="16">
<g transform="translate(0,16) scale(0.003125,-0.003125)" fill="currentColor" stroke="none">
<path d="M2050 4768 c0 -4 -16 -76 -35 -160 -19 -84 -39 -178 -46 -208 -6 -30
-16 -70 -21 -88 l-10 -34 -32 44 c-17 25 -56 81 -86 126 -30 45 -58 81 -63 82
-7 0 -2 -260 8 -372 3 -44 1 -48 -40 -85 -156 -138 -192 -356 -89 -540 43 -78
54 -85 55 -36 0 21 2 47 3 58 2 11 6 50 10 88 12 115 48 195 87 192 17 -1 27
-15 48 -66 77 -189 226 -316 474 -404 l77 -28 1 -86 c1 -133 7 -169 49 -273
53 -133 126 -229 227 -299 23 -16 52 -33 65 -38 16 -6 37 -36 65 -92 50 -100
130 -190 163 -184 12 2 40 -5 61 -15 21 -11 49 -22 61 -23 38 -6 30 -41 -12
-48 -48 -8 -281 -113 -485 -218 -168 -87 -321 -154 -380 -166 -140 -29 -199
-29 -313 -1 -35 8 -110 54 -120 73 -11 19 -2 24 -135 -86 -42 -35 -74 -68 -71
-73 3 -5 -16 -28 -43 -51 -100 -86 -179 -174 -208 -229 -16 -31 -38 -59 -47
-61 -19 -5 -19 -10 -19 -122 0 -128 48 -242 158 -370 132 -155 333 -265 485
-265 38 0 66 -10 140 -49 90 -48 199 -84 303 -99 28 -4 160 -7 295 -7 275 1
390 16 627 81 421 115 741 355 946 709 83 143 155 345 182 510 7 47 8 289 0
325 -3 14 -9 48 -14 76 -6 28 -19 79 -31 114 -68 202 -160 338 -383 564 -180
183 -272 322 -348 528 -80 218 -217 435 -394 626 l-67 72 -3 78 c-2 42 -5 125
-7 185 -1 59 -5 107 -8 107 -4 -1 -42 -59 -134 -207 -14 -24 -30 -43 -35 -43
-4 0 -30 80 -55 178 -78 290 -87 320 -97 297 -7 -17 -52 -264 -66 -365 -3 -19
-8 -39 -13 -43 -4 -5 -40 -1 -78 8 -107 26 -301 17 -402 -19 -41 -14 -76 -26
-77 -26 -3 0 -13 41 -64 260 -23 102 -46 189 -51 195 -4 5 -8 6 -8 3z m215
-488 c8 -14 -16 -112 -30 -122 -6 -5 -5 -11 4 -17 8 -5 16 -16 17 -24 4 -28
49 -79 90 -103 55 -33 123 -32 179 1 51 29 95 85 95 119 0 16 6 26 15 26 8 0
15 5 15 10 0 6 -6 10 -13 10 -7 0 -14 10 -15 23 -1 12 -3 35 -4 51 -9 93 126
-32 150 -139 5 -24 5 -152 0 -180 -2 -11 -10 -31 -18 -45 -8 -14 -15 -30 -16
-36 -4 -26 -37 -63 -57 -66 -12 -2 -22 -10 -22 -18 0 -9 -14 -17 -39 -21 -23
-4 -46 -15 -55 -28 -18 -24 -87 -36 -108 -19 -9 7 -17 7 -25 1 -24 -19 -138 3
-138 27 0 5 -11 10 -25 10 -14 0 -25 4 -25 9 0 5 -9 13 -20 16 -11 3 -20 15
-20 26 0 10 -5 19 -12 19 -23 0 -48 34 -48 65 0 19 -6 35 -14 38 -21 8 -33 97
-15 108 12 7 12 9 0 9 -10 0 -12 10 -8 38 10 62 16 83 28 98 6 8 8 14 5 14 -8
0 27 54 57 88 21 23 61 30 72 12z m863 -494 c15 -42 32 -57 75 -65 44 -9 46
-45 2 -46 -40 -1 -54 -11 -71 -51 -8 -19 -19 -34 -24 -34 -5 0 -16 15 -24 34
-17 40 -31 50 -71 51 -24 1 -29 5 -29 25 0 20 5 25 24 26 14 1 31 2 38 2 7 1
22 22 33 47 11 25 23 45 27 45 5 0 14 -15 20 -34z m247 -248 c0 -34 12 -46 50
-50 22 -2 30 -8 30 -23 0 -15 -8 -21 -30 -23 -38 -4 -48 -14 -49 -49 -1 -21
-7 -29 -23 -31 -20 -3 -23 1 -23 27 0 22 -8 35 -31 51 -27 20 -29 24 -15 39 8
9 15 21 15 26 1 6 7 10 14 10 6 1 11 7 9 14 -6 26 8 42 30 39 17 -2 23 -10 23
-30z m-520 -20 c0 -33 3 -36 40 -41 43 -5 42 -41 -1 -45 -22 -2 -35 -11 -42
-28 -14 -29 -28 -31 -37 -3 -4 11 -18 25 -31 31 -30 14 -30 22 1 42 18 12 25
25 25 47 0 26 3 30 23 27 16 -2 22 -10 22 -30z m370 -406 c0 -12 10 -31 22
-43 l21 -22 -35 -33 c-30 -28 -38 -32 -51 -22 -8 7 -18 12 -21 11 -3 -2 -6 1
-6 7 0 5 -6 15 -12 21 -10 10 -9 17 7 34 11 11 22 32 24 45 5 30 2 27 29 25
15 -1 22 -8 22 -23z m-335 -163 c4 -30 9 -35 40 -39 27 -4 35 -10 35 -25 0
-15 -8 -21 -32 -23 -26 -3 -34 -9 -39 -30 -10 -47 -12 -50 -31 -48 -12 2 -18
11 -18 27 0 35 -13 49 -46 49 -24 0 -29 4 -29 25 0 21 5 25 29 25 33 0 45 13
47 50 2 31 1 29 22 26 11 -2 19 -14 22 -37z m626 -82 c101 -27 199 -133 220
-238 25 -119 -10 -224 -101 -307 -117 -107 -305 -110 -430 -8 -49 41 -74 78
-104 153 -17 44 -18 53 -6 63 18 15 45 6 45 -14 0 -25 77 -58 144 -62 43 -2
73 2 102 15 42 19 113 93 115 120 6 107 -16 173 -59 179 -20 3 -26 13 -24 34
2 12 -23 27 -53 31 -28 3 -38 19 -27 40 4 9 142 4 178 -6z m399 -503 c1 -41
19 -62 58 -66 24 -2 33 -8 35 -25 3 -19 -1 -23 -26 -23 -35 0 -65 -30 -66 -67
-1 -21 -7 -29 -23 -31 -19 -3 -23 1 -23 25 0 42 -25 71 -63 75 -44 4 -46 39
-2 45 43 6 65 30 65 70 0 30 3 34 23 31 17 -2 22 -10 22 -34z m-130 -274 c8
-16 27 -36 42 -44 l27 -14 -30 -15 c-17 -9 -36 -28 -43 -44 -13 -27 -14 -27
-25 -9 -6 11 -24 32 -39 46 l-28 27 26 17 c14 9 31 28 37 42 6 13 13 24 14 24
2 0 10 -13 19 -30z m241 -165 c2 -70 57 -125 124 -125 27 0 31 -3 28 -22 -2
-18 -9 -23 -33 -23 -63 0 -115 -62 -115 -135 0 -27 -3 -31 -22 -28 -17 2 -23
10 -23 33 -2 67 -59 129 -119 130 -26 1 -31 5 -31 25 0 21 4 25 29 23 56 -4
116 64 116 132 0 22 4 26 23 23 17 -2 22 -10 23 -33z m-196 -449 c0 -28 40
-65 68 -63 23 2 27 -2 27 -23 0 -21 -4 -25 -26 -23 -35 2 -64 -30 -64 -71 0
-24 -4 -31 -20 -31 -16 0 -20 7 -21 33 -1 41 -29 73 -60 68 -13 -3 -27 1 -32
7 -16 23 -7 40 23 44 46 6 51 9 69 47 16 34 36 41 36 12z m-460 -180 c0 -8 9
-16 20 -19 11 -3 20 -12 20 -20 0 -10 11 -17 33 -19 24 -2 32 -8 32 -23 0 -15
-8 -21 -32 -23 -18 -2 -33 -8 -33 -13 0 -6 -14 -24 -31 -41 -25 -25 -33 -29
-40 -17 -5 8 -9 19 -9 25 0 22 -42 49 -71 46 -25 -3 -29 0 -29 23 0 23 4 26
29 23 33 -3 56 13 77 54 15 28 34 30 34 4z m-311 -220 c5 -13 17 -26 25 -29 9
-4 16 -15 16 -26 0 -25 14 -34 59 -35 29 -1 37 -5 39 -23 3 -20 -1 -23 -32
-23 -25 0 -43 -8 -65 -31 -32 -32 -34 -36 -35 -84 -1 -23 -6 -30 -21 -30 -12
0 -21 8 -23 20 -7 49 -13 65 -25 65 -7 0 -23 14 -37 30 -17 20 -34 30 -53 30
-24 0 -28 4 -25 23 2 18 10 23 43 25 36 3 85 33 85 53 0 19 20 59 30 59 6 0
15 -11 19 -24z"/>
<path d="M3975 3804 c-22 -58 -73 -109 -138 -138 l-52 -22 47 -19 c58 -22 118
-84 143 -148 10 -26 21 -47 25 -47 4 0 13 18 20 41 18 54 77 119 134 147 25
13 46 25 46 28 0 2 -24 15 -52 28 -63 28 -100 65 -128 129 -11 26 -22 47 -24
47 -2 0 -11 -21 -21 -46z"/>
<path d="M1766 3728 c-20 -55 -25 -83 -32 -198 -4 -59 -11 -99 -19 -105 -7 -6
-20 -33 -28 -61 -22 -73 -50 -124 -91 -163 -20 -19 -36 -44 -36 -55 0 -11 20
-38 44 -60 35 -33 44 -50 50 -88 4 -26 15 -57 24 -70 19 -25 67 -144 77 -192
3 -16 19 -42 35 -58 28 -27 34 -29 97 -27 63 2 186 27 211 43 6 4 16 -2 21
-13 17 -31 61 -220 67 -289 5 -54 3 -66 -12 -80 -63 -58 -175 -152 -211 -177
-24 -17 -43 -34 -43 -38 0 -18 87 -47 144 -47 104 0 207 35 483 163 87 41 195
89 240 107 l82 32 -44 57 c-24 31 -58 86 -75 124 -16 37 -36 67 -43 67 -18 0
-105 61 -150 104 -134 132 -201 302 -202 513 0 79 -1 83 -25 92 -216 80 -291
122 -390 222 -57 56 -86 96 -117 158 l-41 82 -16 -43z m304 -387 c0 -33 -41
-74 -100 -99 -44 -19 -183 -20 -205 -2 -19 16 -19 43 1 82 16 30 16 30 82 25
42 -4 84 -1 112 7 25 8 60 14 78 15 29 1 32 -2 32 -28z"/>
<path d="M1958 3310 c-16 -5 -55 -7 -88 -6 -44 2 -61 -2 -65 -12 -8 -21 -2
-24 54 -25 48 -1 131 27 131 45 0 4 -1 8 -2 7 -2 0 -15 -4 -30 -9z"/>
<path d="M4245 3423 c-20 -47 -58 -88 -96 -103 -35 -15 -37 -26 -6 -34 41 -10
79 -48 102 -100 l23 -51 16 40 c21 48 58 89 97 105 16 7 29 16 29 20 0 4 -13
13 -29 20 -38 15 -76 56 -96 103 -8 20 -17 37 -20 37 -3 0 -12 -17 -20 -37z"/>
<path d="M1139 2806 l-39 -84 -87 -29 c-48 -16 -88 -34 -90 -39 -2 -6 20 -21
49 -35 60 -28 100 -57 93 -69 -8 -14 -18 -140 -10 -140 4 0 36 20 71 45 34 25
66 45 70 45 3 0 35 -20 70 -45 78 -56 88 -57 80 -5 -3 22 -9 58 -12 79 l-6 40
66 37 c37 21 65 43 63 48 -2 5 -41 22 -88 38 l-85 28 -42 85 c-23 47 -47 85
-53 85 -5 0 -28 -38 -50 -84z"/>
<path d="M795 2549 c-26 -42 91 -343 161 -412 15 -15 57 -49 93 -74 108 -76
241 -184 242 -196 1 -7 0 -16 -1 -22 -8 -38 -21 -129 -25 -175 -11 -114 -13
-140 -10 -140 2 0 19 26 39 58 34 56 94 118 202 210 55 47 54 44 39 162 -21
176 -61 220 -289 328 -107 51 -161 63 -184 40 -17 -17 0 -40 84 -108 80 -66
91 -85 28 -49 -138 77 -180 118 -229 224 -33 72 -106 165 -130 165 -8 0 -17
-5 -20 -11z"/>
</g>
</svg>